<svg width="32" height="32" viewBox="0 0 32 32" fill="none" xmlns="http://www.w3.org/2000/svg">
<path d="M5.33325 25.3334V22.6667H7.99992V13.3334C7.99992 11.4889 8.55547 9.85024 9.66659 8.41735C10.7777 6.98447 12.2221 6.04535 13.9999 5.60002V2.66669H17.9999V5.60002C19.7777 6.04446 21.2221 6.98358 22.3333 8.41735C23.4444 9.85113 23.9999 11.4898 23.9999 13.3334V22.6667H26.6666V25.3334H5.33325ZM15.9999 29.3334C15.2666 29.3334 14.639 29.0725 14.1173 28.5507C13.5955 28.0289 13.3341 27.4009 13.3333 26.6667H18.6666C18.6666 27.4 18.4057 28.028 17.8839 28.5507C17.3621 29.0734 16.7341 29.3342 15.9999 29.3334ZM10.6666 22.6667H21.3333V13.3334C21.3333 11.8667 20.811 10.6111 19.7666 9.56669C18.7221 8.52224 17.4666 8.00002 15.9999 8.00002C14.5333 8.00002 13.2777 8.52224 12.2333 9.56669C11.1888 10.6111 10.6666 11.8667 10.6666 13.3334V22.6667Z" fill="black"/>
</svg>
