<svg width="16" height="16" viewBox="0 0 16 16" fill="none" xmlns="http://www.w3.org/2000/svg">
<path d="M9.74219 3.96826V6.70676L10.7002 7.30926C10.7348 7.31669 10.7706 7.31669 10.8052 7.30926L14.9242 4.53226C14.9212 4.39749 14.8719 4.26785 14.7846 4.16515C14.6972 4.06244 14.5772 3.99292 14.4447 3.96826H9.74219Z" fill="#0072C6"/>
<path d="M9.74178 7.72865L10.6153 8.32865C10.6561 8.35366 10.7031 8.3669 10.751 8.3669C10.7989 8.3669 10.8459 8.35366 10.8868 8.32865C10.7368 8.41915 14.9233 5.63965 14.9233 5.63965V10.6726C14.9342 10.7746 14.9227 10.8778 14.8896 10.9749C14.8565 11.0719 14.8026 11.1606 14.7316 11.2347C14.6606 11.3087 14.5743 11.3664 14.4788 11.4036C14.3832 11.4408 14.2806 11.4567 14.1783 11.4501H9.74128L9.74178 7.72865ZM5.21978 6.46615C5.07466 6.4655 4.93206 6.5041 4.80707 6.57786C4.68209 6.65162 4.57937 6.75779 4.50978 6.88515C4.31981 7.22282 4.22867 7.60713 4.24678 7.99415C4.22704 8.38036 4.3183 8.76416 4.50978 9.10015C4.57903 9.22229 4.67922 9.32406 4.80026 9.39522C4.92131 9.46639 5.05895 9.50444 5.19936 9.50555C5.33976 9.50667 5.47799 9.47081 5.60015 9.40157C5.72231 9.33234 5.8241 9.23218 5.89528 9.11115C6.08504 8.77685 6.17444 8.39494 6.15278 8.01115C6.17444 7.61534 6.08802 7.2211 5.90278 6.87065C5.8364 6.74756 5.73775 6.64487 5.61742 6.5736C5.49709 6.50234 5.35963 6.46519 5.21978 6.46615Z" fill="#0072C6"/>
<path d="M1.07666 2.5775V13.291L9.22666 15V1L1.07666 2.5775ZM6.53066 9.7455C6.37823 9.96046 6.17552 10.1349 5.9402 10.2535C5.70489 10.3721 5.44413 10.4313 5.18066 10.426C4.92383 10.4306 4.6697 10.373 4.43989 10.2583C4.21007 10.1436 4.01136 9.97502 3.86066 9.767C3.50329 9.26799 3.3245 8.66311 3.35316 8.05C3.32283 7.40683 3.50485 6.77153 3.87116 6.242C4.02564 6.02306 4.23156 5.84544 4.4708 5.72478C4.71004 5.60411 4.97527 5.54409 5.24316 5.55C5.4981 5.54506 5.75036 5.60268 5.97787 5.71783C6.20537 5.83298 6.40118 6.00214 6.54816 6.2105C6.90196 6.72033 7.07771 7.33264 7.04816 7.9525C7.07945 8.59104 6.89738 9.22184 6.53066 9.7455Z" fill="#0072C6"/>
</svg>
