<svg width="16" height="16" viewBox="0 0 16 16" fill="none" xmlns="http://www.w3.org/2000/svg">
<path d="M13.7 2.75H9.1L8.05 4.85H2.15V6.85H0.25L2.15 13.25H14.75V2.75H13.7ZM10.1 3.8H13.65V4.85H9.6L10.1 3.8ZM12.85 6.85H3.3V5.9H13.7V9.713L12.85 6.85Z" fill="#7CD8CF"/>
<path d="M15.1691 8.18184C15.1661 9.37234 15.1601 10.5628 15.1691 11.7533C15.1751 12.1648 15.0474 12.5672 14.8051 12.8998C14.4366 13.3913 13.9884 13.8175 13.4791 14.1608C12.9531 14.5332 12.398 14.8626 11.8191 15.1458C11.8 15.1582 11.7779 15.1652 11.7552 15.1664C11.7325 15.1675 11.7099 15.1627 11.6896 15.1523C10.7884 14.7279 9.95526 14.1718 9.21759 13.5023C8.86426 13.1929 8.58853 12.8048 8.41259 12.3693C8.35817 12.2169 8.33059 12.0562 8.33109 11.8943V8.17634C8.32712 8.14591 8.33496 8.1151 8.353 8.09027C8.37104 8.06544 8.39791 8.04847 8.42809 8.04284C9.50809 7.64284 10.5873 7.23984 11.6656 6.83384C11.6914 6.82298 11.7191 6.81738 11.7471 6.81738C11.7751 6.81738 11.8028 6.82298 11.8286 6.83384C12.9076 7.23851 13.9871 7.64101 15.0671 8.04134C15.0988 8.04733 15.127 8.06521 15.146 8.09133C15.165 8.11745 15.1732 8.14983 15.1691 8.18184Z" fill="#13645D"/>
<path d="M15.4213 7.85802C14.2193 7.41269 13.0181 6.96485 11.8178 6.51452C11.7739 6.49646 11.7247 6.49646 11.6808 6.51452C10.4835 6.96319 9.28546 7.41002 8.08679 7.85502C8.05847 7.86161 8.03375 7.87883 8.01775 7.90311C8.00175 7.92739 7.99568 7.95689 8.00079 7.98552V11.8595C7.99992 12.0775 8.03977 12.2937 8.11829 12.497C8.31501 12.9732 8.61828 13.3979 9.00479 13.7385C9.80345 14.4585 10.7099 15.049 11.6913 15.4885C11.7126 15.498 11.7359 15.502 11.7591 15.5001C11.7823 15.4983 11.8047 15.4907 11.8243 15.478C12.3411 15.2384 12.8399 14.9617 13.3168 14.65C13.9262 14.2762 14.4714 13.8065 14.9313 13.259C15.2811 12.8662 15.4823 12.3632 15.4998 11.8375V7.97402C15.5045 7.94826 15.4989 7.92167 15.4842 7.89998C15.4696 7.87829 15.447 7.86322 15.4213 7.85802ZM14.6593 12.808C14.3081 13.2756 13.8812 13.6812 13.3963 14.008C12.8958 14.3631 12.3672 14.6768 11.8158 14.946C11.7975 14.9578 11.7764 14.9646 11.7547 14.9658C11.7329 14.9669 11.7112 14.9623 11.6918 14.9525C10.8339 14.5485 10.0406 14.0196 9.33779 13.383C9.00116 13.0885 8.73858 12.7189 8.57129 12.304C8.51865 12.159 8.49224 12.0058 8.49329 11.8515V8.30952C8.48959 8.28049 8.4971 8.25114 8.51428 8.22745C8.53147 8.20376 8.55704 8.18751 8.58579 8.18202C9.61479 7.80035 10.6426 7.41702 11.6693 7.03202C11.6939 7.02164 11.7203 7.01629 11.747 7.01629C11.7737 7.01629 11.8002 7.02164 11.8248 7.03202C12.8518 7.41702 13.8798 7.80035 14.9088 8.18202C14.9391 8.18776 14.966 8.20493 14.9839 8.22997C15.0019 8.25501 15.0096 8.286 15.0053 8.31652C15.0023 9.45002 14.9973 10.584 15.0053 11.7165C15.0109 12.1079 14.8895 12.4905 14.6593 12.807V12.808Z" fill="#004D40"/>
<path d="M12.3211 8.99984C12.259 9.14862 12.2251 9.30766 12.2211 9.46884C12.2211 9.48684 12.2021 9.50734 12.1871 9.52284C12.1404 9.57113 12.11 9.63288 12.1003 9.69937C12.0906 9.76585 12.102 9.83371 12.133 9.89335C12.1639 9.95299 12.2128 10.0014 12.2728 10.0317C12.3328 10.062 12.4007 10.0728 12.4671 10.0623C12.3763 9.90678 12.3233 9.73206 12.3124 9.55226C12.3015 9.37246 12.3329 9.19261 12.4042 9.0272C12.4756 8.86179 12.5847 8.71545 12.723 8.59996C12.8612 8.48448 13.0247 8.40309 13.2001 8.36234C13.3547 8.32279 13.5158 8.31515 13.6735 8.33989C13.8311 8.36463 13.9821 8.42123 14.1172 8.50625C14.2523 8.59126 14.3686 8.7029 14.4591 8.83435C14.5496 8.96581 14.6124 9.11432 14.6436 9.27084C14.6963 9.55267 14.6403 9.84398 14.487 10.0863C14.3337 10.3285 14.0944 10.5038 13.8171 10.5768L13.7796 10.3853C13.9185 10.3433 14.0459 10.2699 14.1519 10.1708C14.2578 10.0716 14.3395 9.9494 14.3906 9.81358C14.4418 9.67775 14.4609 9.53199 14.4466 9.38758C14.4323 9.24316 14.3849 9.10399 14.3081 8.98084C14.2369 8.87172 14.1448 8.77782 14.037 8.70456C13.9293 8.6313 13.8081 8.58014 13.6804 8.55405C13.5528 8.52797 13.4212 8.52746 13.2934 8.55257C13.1655 8.57768 13.0439 8.62791 12.9356 8.70034C12.7325 8.8326 12.5899 9.03965 12.5385 9.27651C12.4872 9.51337 12.5315 9.7609 12.6616 9.96534C12.6929 9.93539 12.7175 9.89912 12.7337 9.85893C12.7499 9.81875 12.7573 9.77558 12.7555 9.7323C12.7537 9.68901 12.7427 9.6466 12.7233 9.6079C12.7038 9.5692 12.6763 9.53509 12.6426 9.50784C12.6281 9.49802 12.6168 9.48417 12.6101 9.46801C12.6033 9.45184 12.6014 9.43406 12.6046 9.41684L12.6441 9.19134L12.6651 9.18434C12.7221 9.24434 12.7836 9.30034 12.8351 9.36434C12.9879 9.56708 13.0667 9.81603 13.0584 10.0698C13.05 10.3235 12.9551 10.5667 12.7893 10.759C12.6236 10.9513 12.397 11.0811 12.1472 11.1267C11.8975 11.1723 11.6397 11.1311 11.4166 11.0098C11.4033 10.9993 11.3869 10.9935 11.3699 10.9935C11.3529 10.9935 11.3364 10.9993 11.3231 11.0098C11.2984 11.0305 11.2668 11.041 11.2346 11.0391C11.2025 11.0373 11.1723 11.0232 11.1501 10.9998C11.1377 10.9911 11.1248 10.9829 11.1116 10.9753C11.0974 10.9649 11.0809 10.958 11.0635 10.9552C11.0461 10.9524 11.0283 10.9538 11.0115 10.9593C10.9947 10.9648 10.9795 10.9742 10.9671 10.9867C10.9547 10.9992 10.9454 11.0145 10.9401 11.0313C10.9141 11.0998 10.8901 11.1688 10.8626 11.2373C10.8594 11.2501 10.8533 11.2621 10.8449 11.2723C10.8365 11.2825 10.826 11.2907 10.8141 11.2964C10.8022 11.3021 10.7891 11.3051 10.7759 11.3052C10.7627 11.3052 10.7496 11.3024 10.7376 11.2968C10.6523 11.2668 10.5668 11.2375 10.4811 11.2088C10.4435 11.2042 10.4054 11.2124 10.3731 11.2322C10.3407 11.252 10.3161 11.2822 10.3031 11.3178L10.2811 11.4568C10.2716 11.5243 10.2356 11.5503 10.1641 11.5488C10.1212 11.547 10.0781 11.5507 10.0361 11.5598C9.96262 11.5778 9.94162 11.6433 9.92112 11.7033C9.88812 11.7988 9.83312 11.8153 9.74462 11.8083C9.70556 11.8076 9.66686 11.816 9.63162 11.8328C9.56912 11.8618 9.51212 11.9013 9.45012 11.9328C9.42708 11.9439 9.40091 11.9465 9.37612 11.9403C9.22612 11.8953 9.07862 11.8468 8.93012 11.7993C8.84562 11.7723 8.82712 11.7463 8.84212 11.6623C8.86212 11.5478 8.88512 11.4338 8.90612 11.3193C8.91205 11.2866 8.92547 11.2558 8.94534 11.2291C8.96521 11.2025 8.99098 11.1808 9.02062 11.1658C9.60862 10.8348 10.1961 10.5033 10.7831 10.1713C10.8002 10.1647 10.8145 10.1524 10.8236 10.1365C10.8327 10.1205 10.8361 10.1019 10.8331 10.0838C10.827 9.90733 10.863 9.73191 10.9379 9.572C11.0129 9.4121 11.1248 9.27229 11.2644 9.1641C11.404 9.0559 11.5673 8.98242 11.7408 8.94969C11.9144 8.91696 12.0932 8.92592 12.2626 8.97584C12.2791 8.98184 12.3001 8.98984 12.3211 8.99984ZM10.9086 10.4498L10.8506 10.4808L10.2706 10.8093L9.23012 11.3998C9.17212 11.4323 9.16412 11.4553 9.19012 11.5028C9.22162 11.5588 9.24662 11.5653 9.30712 11.5313L10.5001 10.8573L10.9776 10.5878L10.9086 10.4498Z" fill="white"/>
<path d="M11.6149 11.2369C11.8296 11.2954 12.0557 11.2976 12.2715 11.2433C12.4873 11.189 12.6855 11.08 12.8469 10.9269C13.0067 10.7817 13.1251 10.5967 13.19 10.3908C13.2549 10.1849 13.264 9.96546 13.2164 9.75488C13.4025 9.87988 13.5457 10.059 13.6267 10.2679C13.7077 10.4769 13.7227 10.7058 13.6695 10.9235C13.6164 11.1413 13.4977 11.3375 13.3295 11.4856C13.1612 11.6337 12.9516 11.7267 12.7289 11.7519C12.708 11.7558 12.6867 11.7575 12.6654 11.7569C12.6319 11.7502 12.5971 11.7556 12.5672 11.7721C12.5373 11.7885 12.5142 11.815 12.5019 11.8469C12.4929 11.8679 12.4519 11.8814 12.4224 11.8889C12.3937 11.8925 12.3646 11.8925 12.3359 11.8889C12.3173 11.8855 12.2981 11.887 12.2803 11.8932C12.2624 11.8995 12.2465 11.9102 12.2339 11.9243C12.2214 11.9385 12.2128 11.9557 12.2088 11.9742C12.2049 11.9926 12.2058 12.0118 12.2114 12.0299L12.2464 12.2299C12.2589 12.3039 12.2324 12.3394 12.1584 12.3524L11.9024 12.3984C11.8691 12.4131 11.8415 12.4381 11.8235 12.4697C11.8055 12.5013 11.7981 12.5378 11.8024 12.5739L11.8584 12.7154C11.8829 12.7769 11.8659 12.8154 11.8084 12.8479C11.7675 12.8696 11.7298 12.8968 11.6964 12.9289C11.6339 12.9914 11.6714 13.0679 11.6784 13.1384C11.6839 13.1616 11.6809 13.1859 11.67 13.2071C11.659 13.2283 11.6409 13.2449 11.6189 13.2539C11.5804 13.2675 11.5455 13.2895 11.5166 13.3183C11.4878 13.3471 11.4656 13.382 11.4519 13.4204C11.4325 13.4736 11.3974 13.5197 11.3512 13.5525C11.3051 13.5854 11.25 13.6035 11.1934 13.6044C11.0848 13.6203 10.9771 13.6422 10.8709 13.6699C10.7749 13.6904 10.7464 13.6749 10.7139 13.5849C10.6769 13.4849 10.6424 13.3789 10.6034 13.2769C10.5895 13.244 10.584 13.2082 10.5874 13.1727C10.5908 13.1371 10.603 13.103 10.6229 13.0734C10.9594 12.5039 11.2934 11.9334 11.6299 11.3644C11.6499 11.3209 11.6709 11.2844 11.6149 11.2369ZM11.8909 11.5314L11.8819 11.5384C11.5579 12.0877 11.2341 12.6377 10.9104 13.1884C10.9044 13.1958 10.9002 13.2046 10.8982 13.2139C10.8962 13.2233 10.8964 13.233 10.8989 13.2422C10.9013 13.2514 10.9059 13.26 10.9122 13.2671C10.9186 13.2743 10.9265 13.2799 10.9354 13.2834C10.9909 13.3169 11.0184 13.3089 11.0549 13.2469L11.9884 11.6599L12.0129 11.6149L11.8909 11.5314Z" fill="white"/>
</svg>
