<svg width="22" height="22" viewBox="0 0 22 22" fill="none" xmlns="http://www.w3.org/2000/svg">
<path d="M4.29646 5.69514L6.23337 17.3946C6.32197 17.9302 6.59783 18.4169 7.01181 18.7681C7.42579 19.1193 7.951 19.3121 8.49387 19.3122H11.5629M17.7027 5.69514L15.7667 17.3946C15.6781 17.9302 15.4022 18.4169 14.9883 18.7681C14.5743 19.1193 14.0491 19.3121 13.5062 19.3122H10.4372M9.18687 10.1896V14.8178M12.8132 10.1896V14.8178M2.52087 5.69514H19.4792M13.5456 5.69514V4.06348C13.5456 3.6988 13.4008 3.34907 13.1429 3.0912C12.885 2.83334 12.5353 2.68848 12.1706 2.68848H9.82946C9.46478 2.68848 9.11505 2.83334 8.85719 3.0912C8.59932 3.34907 8.45446 3.6988 8.45446 4.06348V5.69514H13.5456Z" stroke="#FF0000" stroke-width="1.5" stroke-linecap="round" stroke-linejoin="round"/>
</svg>
